<?xml version="1.0" standalone="no"?>
<!DOCTYPE svg PUBLIC "-//W3C//DTD SVG 20010904//EN"
 "http://www.w3.org/TR/2001/REC-SVG-20010904/DTD/svg10.dtd">
<svg version="1.0" xmlns="http://www.w3.org/2000/svg"
 width="339.000000pt" height="426.000000pt" viewBox="0 0 339.000000 426.000000"
 preserveAspectRatio="xMidYMid meet">
<metadata>
Created by potrace 1.16, written by Peter Selinger 2001-2019
</metadata>
<g transform="translate(0.000000,426.000000) scale(0.100000,-0.100000)"
fill="#000000" stroke="none">
<path d="M1000 3743 c-1 -13 295 -773 300 -773 4 0 502 728 524 768 6 9 -79
12 -408 12 -229 0 -416 -3 -416 -7z"/>
<path d="M1920 3744 c0 -15 524 -773 531 -767 7 8 299 757 299 767 0 3 -187 6
-415 6 -228 0 -415 -3 -415 -6z"/>
<path d="M827 3613 c-49 -85 -407 -743 -407 -747 0 -3 160 -6 355 -6 195 0
355 3 355 7 0 12 -282 737 -290 746 -4 5 -10 5 -13 0z"/>
<path d="M2896 3589 c-43 -103 -276 -709 -276 -718 0 -8 112 -11 351 -11 330
0 351 1 344 18 -7 19 -357 668 -386 717 l-18 29 -15 -35z"/>
<path d="M1863 3448 c-41 -52 -394 -580 -391 -584 3 -2 186 -3 407 -2 l402 3
-196 290 c-109 160 -200 294 -204 298 -5 4 -12 2 -18 -5z"/>
<path d="M430 2645 c0 -14 1385 -1976 1388 -1966 3 9 -399 1291 -579 1849
l-40 122 -385 0 c-211 0 -384 -2 -384 -5z"/>
<path d="M1420 2623 c5 -16 106 -332 225 -703 255 -798 224 -709 234 -690 11
20 451 1396 451 1410 0 7 -152 10 -459 10 l-460 0 9 -27z"/>
<path d="M2547 2643 c-3 -5 -143 -444 -312 -978 -169 -533 -310 -976 -313
-984 -3 -7 0 -12 6 -10 8 3 1296 1829 1377 1952 l17 27 -385 0 c-212 0 -388
-3 -390 -7z"/>
</g>
</svg>
