<?xml version="1.0" standalone="no"?>
<!DOCTYPE svg PUBLIC "-//W3C//DTD SVG 20010904//EN"
 "http://www.w3.org/TR/2001/REC-SVG-20010904/DTD/svg10.dtd">
<svg version="1.0" xmlns="http://www.w3.org/2000/svg"
 width="938.000000pt" height="426.000000pt" viewBox="0 0 938.000000 426.000000"
 preserveAspectRatio="xMidYMid meet">
<metadata>
Created by potrace 1.16, written by Peter Selinger 2001-2019
</metadata>
<g transform="translate(0.000000,426.000000) scale(0.100000,-0.100000)"
fill="#000000" stroke="none">
<path d="M40 2245 l0 -1575 45 0 45 0 0 1575 0 1575 -45 0 -45 0 0 -1575z"/>
<path d="M380 3395 c0 -9 9 -15 23 -15 12 0 33 -7 45 -16 l22 -15 0 -360 c0
-214 -4 -368 -10 -378 -5 -10 -25 -22 -45 -25 -22 -4 -35 -13 -35 -22 0 -14
31 -15 258 -12 241 4 261 5 317 28 78 30 120 58 172 111 84 88 124 230 103
375 -25 181 -120 288 -291 329 -94 22 -559 22 -559 0z m474 -27 c55 -17 109
-74 135 -143 40 -106 45 -326 11 -455 -30 -115 -100 -177 -210 -187 -45 -4
-65 -2 -85 11 l-25 16 0 370 c0 322 2 371 16 384 19 19 99 21 158 4z"/>
<path d="M1310 3397 c0 -9 14 -17 35 -21 19 -4 39 -15 45 -26 6 -12 10 -153
10 -374 0 -388 2 -377 -60 -391 -17 -4 -30 -13 -30 -22 0 -13 35 -14 274 -11
l273 3 69 35 c89 46 125 98 126 186 1 66 -14 104 -59 146 -36 34 -108 66 -167
74 l-47 7 57 23 c105 42 159 118 152 209 -6 68 -34 107 -106 142 l-57 28 -257
3 c-220 3 -258 1 -258 -11z m418 -33 c39 -27 55 -73 56 -154 0 -55 -5 -87 -21
-122 -24 -54 -44 -67 -114 -75 l-51 -6 4 172 c3 157 5 174 22 187 26 19 76 18
104 -2z m39 -410 c54 -41 68 -70 71 -153 7 -140 -46 -211 -154 -211 -77 0 -78
3 -82 213 l-4 179 71 -4 c51 -2 78 -9 98 -24z"/>
<path d="M2120 3397 c0 -9 14 -17 35 -21 26 -5 39 -14 45 -32 11 -27 14 -684
4 -721 -4 -16 -19 -27 -45 -35 -22 -6 -39 -17 -39 -25 0 -20 431 -18 519 2
138 33 236 110 294 233 31 64 32 72 32 192 0 135 -12 185 -63 263 -32 49 -107
103 -179 130 -53 20 -81 22 -330 25 -234 3 -273 1 -273 -11z m486 -36 c99 -45
145 -147 152 -338 11 -303 -73 -443 -267 -443 -46 0 -68 18 -76 63 -3 18 -5
184 -3 370 3 322 4 339 22 353 28 20 122 17 172 -5z"/>
<path d="M1680 1738 c0 -5 9 -17 21 -29 19 -19 20 -29 17 -260 l-3 -240 25 6
c29 8 65 8 137 -1 99 -12 160 44 170 155 8 82 -12 155 -49 186 -35 30 -110 35
-146 9 l-22 -15 0 100 0 101 -75 -2 c-41 -2 -75 -6 -75 -10z m249 -252 c14
-56 14 -111 0 -176 -12 -56 -40 -83 -77 -73 -21 5 -22 9 -22 137 0 72 4 136 8
142 14 20 46 33 63 23 9 -4 22 -28 28 -53z"/>
<path d="M2070 1735 c0 -7 8 -15 18 -18 27 -6 32 -45 32 -237 0 -192 -5 -227
-31 -235 -45 -15 -12 -25 76 -25 52 0 95 3 95 8 0 4 -9 13 -20 20 -19 12 -20
23 -20 257 l0 245 -75 -2 c-52 -1 -75 -5 -75 -13z"/>
<path d="M3220 1736 c0 -6 9 -17 20 -24 19 -12 20 -23 20 -232 0 -209 -1 -220
-20 -232 -11 -7 -20 -16 -20 -20 0 -5 43 -8 95 -8 89 0 121 11 75 25 -19 6
-20 15 -20 256 l0 249 -75 -2 c-46 -1 -75 -6 -75 -12z"/>
<path d="M4100 1733 c0 -7 7 -13 15 -13 29 0 35 -39 35 -240 0 -201 -6 -240
-35 -240 -8 0 -15 -4 -15 -10 0 -6 38 -10 95 -10 52 0 95 3 95 6 0 4 -8 12
-17 19 -20 15 -33 145 -15 145 19 0 84 -127 77 -150 -6 -19 -2 -20 74 -20 63
0 81 3 81 14 0 8 -4 16 -9 18 -5 2 -37 50 -72 107 l-63 105 45 38 c24 21 52
41 62 44 40 13 11 24 -63 24 -81 0 -98 -7 -58 -25 12 -6 23 -15 25 -22 4 -11
-85 -103 -99 -103 -5 0 -8 74 -8 165 l0 165 -75 -2 c-56 -1 -75 -5 -75 -15z"/>
<path d="M7330 1736 c0 -6 9 -17 20 -24 17 -10 20 -23 20 -75 l0 -63 -58 4
c-112 8 -164 -50 -164 -183 1 -88 20 -138 64 -165 40 -24 105 -26 136 -4 18
13 22 13 22 1 0 -12 14 -13 73 -9 39 2 74 6 76 9 3 2 -5 10 -17 19 -22 15 -22
19 -22 260 l0 244 -75 -2 c-46 -1 -75 -6 -75 -12z m38 -315 c3 -138 -7 -171
-53 -171 -42 0 -57 46 -53 160 4 114 19 143 72 138 l31 -3 3 -124z"/>
<path d="M390 1691 c0 -6 7 -11 15 -11 29 0 35 -39 35 -224 0 -154 -3 -187
-16 -200 -8 -9 -20 -16 -25 -16 -5 0 -9 -5 -9 -11 0 -7 47 -10 153 -7 171 4
206 15 265 82 42 48 55 98 51 188 -5 91 -36 145 -102 180 -38 20 -59 23 -204
26 -113 3 -163 0 -163 -7z m299 -45 c37 -35 51 -86 51 -182 0 -142 -37 -210
-119 -221 -68 -9 -71 -1 -71 215 0 114 4 191 11 204 16 30 90 20 128 -16z"/>
<path d="M2780 1692 c0 -4 10 -12 23 -17 22 -10 22 -12 22 -215 0 -203 0 -205
-22 -215 -13 -5 -23 -13 -23 -17 0 -13 283 -9 321 3 77 26 113 95 85 162 -17
42 -49 66 -99 74 l-38 6 40 18 c92 41 95 157 5 195 -36 15 -314 21 -314 6z
m244 -34 c10 -14 16 -44 16 -76 0 -43 -5 -58 -25 -77 -13 -14 -33 -25 -45 -25
-19 0 -20 6 -20 93 0 52 3 97 7 100 14 15 53 6 67 -15z m-8 -208 c16 -6 35
-20 43 -31 18 -30 16 -105 -4 -135 -19 -29 -59 -47 -86 -39 -17 6 -19 18 -19
111 0 115 1 116 66 94z"/>
<path d="M4660 1692 c0 -4 10 -12 23 -17 22 -10 22 -12 22 -215 0 -203 0 -205
-22 -215 -13 -5 -23 -13 -23 -17 0 -14 264 -9 313 6 99 30 156 102 164 209 7
81 -10 139 -53 187 -53 58 -100 70 -276 70 -81 0 -148 -3 -148 -8z m280 -27
c17 -9 40 -34 52 -58 19 -35 22 -58 22 -142 0 -125 -23 -187 -78 -210 -43 -18
-78 -19 -94 -3 -13 13 -18 409 -5 421 12 12 73 7 103 -8z"/>
<path d="M7700 1692 c0 -4 10 -12 23 -17 22 -10 22 -12 22 -215 0 -203 0 -205
-22 -215 -13 -5 -23 -13 -23 -17 0 -5 86 -8 190 -8 l190 0 0 85 c0 65 -3 85
-14 85 -8 0 -16 -16 -20 -39 -12 -76 -81 -125 -151 -107 -25 6 -25 8 -25 106
0 93 1 100 20 100 25 0 58 -32 66 -65 3 -14 13 -25 21 -25 11 0 14 6 9 23 -3
12 -6 57 -6 100 0 84 -11 98 -34 42 -13 -29 -46 -55 -72 -55 -3 0 -3 46 -2
103 l3 102 52 0 c63 -1 89 -21 105 -82 17 -69 35 -54 36 32 l2 75 -185 0
c-102 0 -185 -3 -185 -8z"/>
<path d="M8130 1690 c0 -5 7 -10 15 -10 29 0 35 -39 35 -212 0 -191 -3 -215
-31 -223 -46 -15 -11 -25 86 -25 63 0 105 4 105 10 0 6 -4 10 -9 10 -5 0 -17
7 -25 16 -12 12 -16 36 -16 100 l0 84 34 0 c31 0 36 -4 50 -42 8 -24 20 -69
26 -100 13 -67 35 -88 93 -88 38 0 97 23 97 39 0 15 -13 21 -26 10 -21 -17
-31 -3 -49 71 -13 53 -24 76 -47 95 -16 14 -35 25 -41 25 -7 0 6 9 29 19 45
20 74 67 74 119 0 41 -42 89 -88 102 -48 13 -312 13 -312 0z m249 -29 c27 -27
36 -84 22 -132 -13 -43 -35 -59 -80 -59 l-31 0 0 86 c0 47 5 94 10 105 14 25
54 25 79 0z"/>
<path d="M8590 1692 c0 -4 10 -12 23 -17 22 -10 22 -12 22 -215 0 -203 0 -205
-22 -215 -44 -19 -22 -25 97 -25 120 0 149 9 88 26 l-33 10 -3 75 -3 76 60 6
c70 6 137 40 157 79 19 37 18 118 -2 147 -34 47 -86 61 -241 61 -79 0 -143 -3
-143 -8z m251 -31 c22 -17 24 -27 24 -100 0 -91 -14 -115 -73 -127 l-32 -6 0
119 c0 66 3 123 7 126 13 13 51 7 74 -12z"/>
<path d="M979 1557 c-46 -31 -63 -69 -67 -152 -6 -127 52 -195 168 -195 68 0
117 24 145 71 16 26 20 52 20 114 0 135 -45 185 -166 185 -52 0 -73 -5 -100
-23z m124 -12 c17 -17 37 -98 37 -150 0 -58 -20 -132 -42 -151 -19 -18 -20
-18 -43 8 -41 47 -47 207 -11 277 18 34 37 39 59 16z"/>
<path d="M1318 1573 c-27 -2 -48 -8 -48 -14 0 -5 7 -9 15 -9 26 0 35 -46 35
-171 0 -115 1 -121 26 -146 23 -22 32 -25 80 -21 33 3 62 12 74 23 19 18 20
18 20 -2 0 -19 5 -20 73 -15 39 2 74 6 76 9 3 2 -5 10 -17 19 -21 14 -22 22
-22 176 l0 160 -72 -7 c-40 -4 -74 -9 -76 -10 -2 -2 6 -13 17 -24 19 -19 21
-33 21 -130 0 -94 -3 -112 -21 -135 -24 -31 -54 -34 -69 -7 -5 11 -10 84 -10
165 l0 146 -27 -2 c-16 -1 -49 -3 -75 -5z"/>
<path d="M2359 1557 c-49 -33 -69 -79 -69 -162 0 -84 20 -129 70 -163 29 -20
44 -23 94 -20 53 4 62 8 92 41 19 20 34 46 34 57 0 25 -16 26 -29 1 -14 -26
-65 -43 -96 -31 -31 12 -55 59 -55 110 l0 40 95 0 96 0 -7 38 c-15 85 -46 111
-130 112 -47 0 -69 -5 -95 -23z"/>
<path d="M3495 1564 c-36 -19 -45 -31 -45 -66 0 -19 8 -33 26 -45 53 -34 99
24 70 90 -7 14 -3 17 17 17 36 0 49 -22 45 -77 -3 -45 -5 -49 -43 -66 -121
-53 -143 -76 -131 -141 6 -31 14 -40 43 -52 38 -16 82 -11 119 13 19 12 22 12
27 -1 9 -23 69 -30 111 -12 37 15 42 42 6 31 -17 -5 -19 4 -22 135 -3 141 -3
142 -31 166 -24 20 -39 24 -95 24 -41 0 -79 -6 -97 -16z"/>
<path d="M3860 1557 c-54 -36 -74 -80 -74 -162 0 -82 20 -126 75 -163 29 -20
43 -23 93 -20 54 4 63 8 93 43 46 54 44 106 -3 54 -42 -46 -97 -44 -130 6 -12
18 -17 46 -16 94 0 78 20 126 58 143 27 13 44 4 26 -14 -16 -16 -15 -71 0 -86
7 -7 24 -12 39 -12 63 0 80 70 28 114 -42 36 -139 37 -189 3z"/>
<path d="M5223 1573 c-24 -2 -43 -6 -43 -9 0 -2 9 -13 20 -24 18 -18 20 -33
20 -150 0 -119 -2 -131 -20 -142 -11 -7 -20 -16 -20 -20 0 -5 43 -8 95 -8 89
0 121 11 75 25 -19 6 -20 15 -20 171 l0 164 -32 -2 c-18 -1 -52 -3 -75 -5z"/>
<path d="M5455 1564 c-36 -19 -45 -31 -45 -66 0 -19 8 -33 26 -45 53 -34 99
24 70 90 -7 14 -3 17 17 17 36 0 49 -22 45 -77 -3 -45 -5 -49 -43 -66 -121
-53 -143 -76 -131 -141 6 -31 14 -40 43 -52 37 -16 83 -12 118 11 18 11 24 10
44 -6 28 -23 50 -24 97 -4 36 15 39 41 3 30 -18 -6 -19 0 -19 130 l0 137 -29
29 c-27 26 -36 29 -98 29 -42 0 -79 -6 -98 -16z"/>
<path d="M5783 1573 c-24 -2 -43 -6 -43 -9 0 -2 9 -13 20 -24 18 -18 20 -33
20 -150 0 -119 -2 -131 -20 -142 -36 -23 -22 -28 70 -28 50 0 90 3 90 6 0 4
-8 13 -17 20 -15 11 -18 30 -18 132 0 104 3 123 19 141 26 28 62 28 70 -1 3
-13 6 -74 6 -135 0 -100 -2 -115 -20 -133 -11 -11 -20 -22 -20 -25 0 -3 41 -5
90 -5 50 0 90 2 90 5 0 3 -9 14 -20 25 -17 17 -20 33 -20 126 0 129 14 163 66
164 31 0 34 -16 34 -155 0 -97 -3 -125 -15 -135 -29 -24 -14 -30 75 -30 84 0
115 11 71 25 -25 8 -31 44 -31 181 0 101 -2 116 -20 134 -30 30 -119 28 -156
-4 l-28 -23 -19 23 c-25 33 -111 34 -151 3 l-26 -20 0 20 c0 22 -1 22 -97 14z"/>
<path d="M6423 1560 c-51 -31 -68 -73 -67 -165 0 -97 18 -136 74 -165 49 -25
132 -26 180 -2 23 11 43 33 58 62 20 38 23 56 19 122 -4 85 -19 118 -70 148
-44 28 -150 27 -194 0z m134 -32 c22 -41 25 -206 5 -255 -58 -136 -135 102
-80 246 19 50 50 54 75 9z"/>
<path d="M6768 1573 c-49 -4 -63 -17 -30 -26 24 -6 32 -45 32 -163 0 -100 -11
-144 -35 -144 -8 0 -15 -4 -15 -10 0 -6 38 -10 95 -10 52 0 95 3 95 8 0 4 -9
13 -20 20 -18 11 -20 23 -20 123 0 134 14 168 66 169 31 0 34 -16 34 -156 0
-113 -2 -125 -20 -136 -11 -7 -20 -16 -20 -20 0 -5 43 -8 95 -8 89 0 121 11
75 25 -19 6 -20 15 -20 129 0 130 -10 180 -40 196 -34 18 -115 12 -144 -11
l-26 -20 0 20 c0 22 3 22 -102 14z"/>
</g>
</svg>
