<svg width="953" height="317" viewBox="0 0 953 317" fill="none" xmlns="http://www.w3.org/2000/svg">
<g clip-path="url(#clip0)">
<path d="M299.214 190.6C305.714 190.6 310.581 192.083 313.814 195.05C317.048 197.983 318.664 202.267 318.664 207.9C318.664 211.533 317.864 214.717 316.264 217.45C314.698 220.15 312.414 222.25 309.414 223.75C306.448 225.25 302.898 226 298.764 226L295.664 225.95C293.731 225.883 292.331 225.85 291.464 225.85C288.031 225.85 285.464 225.9 283.764 226V225C284.864 224.933 285.664 224.8 286.164 224.6C286.698 224.4 287.048 224.017 287.214 223.45C287.414 222.883 287.514 221.967 287.514 220.7V195.9C287.514 194.633 287.414 193.717 287.214 193.15C287.048 192.583 286.698 192.2 286.164 192C285.664 191.8 284.864 191.667 283.764 191.6V190.6C285.164 190.7 287.181 190.75 289.814 190.75H291.364L293.364 190.7C296.098 190.633 298.048 190.6 299.214 190.6ZM299.164 191.5C298.131 191.5 297.348 191.617 296.814 191.85C296.314 192.083 295.964 192.5 295.764 193.1C295.564 193.7 295.464 194.6 295.464 195.8V220.8C295.464 222 295.564 222.9 295.764 223.5C295.964 224.1 296.314 224.517 296.814 224.75C297.348 224.983 298.148 225.1 299.214 225.1C303.248 225.1 306.114 223.7 307.814 220.9C309.514 218.067 310.364 213.8 310.364 208.1C310.364 202.4 309.481 198.217 307.714 195.55C305.981 192.85 303.131 191.5 299.164 191.5ZM334.983 199.45C338.816 199.45 341.816 200.55 343.983 202.75C346.149 204.917 347.233 208.367 347.233 213.1C347.233 217.833 346.149 221.283 343.983 223.45C341.816 225.617 338.816 226.7 334.983 226.7C331.183 226.7 328.183 225.617 325.983 223.45C323.816 221.283 322.733 217.833 322.733 213.1C322.733 208.367 323.816 204.917 325.983 202.75C328.183 200.55 331.183 199.45 334.983 199.45ZM334.983 200.45C333.549 200.45 332.399 201.5 331.533 203.6C330.699 205.667 330.283 208.833 330.283 213.1C330.283 217.367 330.699 220.533 331.533 222.6C332.399 224.667 333.549 225.7 334.983 225.7C336.449 225.7 337.599 224.683 338.433 222.65C339.266 220.583 339.683 217.4 339.683 213.1C339.683 208.8 339.249 205.617 338.383 203.55C337.549 201.483 336.416 200.45 334.983 200.45ZM375.254 220.55C375.254 222.083 375.488 223.2 375.954 223.9C376.454 224.6 377.288 224.95 378.454 224.95V226C377.421 225.9 376.388 225.85 375.354 225.85C372.454 225.85 370.021 226.083 368.054 226.55V222.05C366.521 225.15 363.838 226.7 360.004 226.7C357.504 226.7 355.688 226.05 354.554 224.75C354.021 224.117 353.621 223.3 353.354 222.3C353.121 221.267 353.004 219.917 353.004 218.25V205.6C353.004 204.067 352.754 202.95 352.254 202.25C351.788 201.55 350.971 201.2 349.804 201.2V200.15C350.838 200.25 351.871 200.3 352.904 200.3C355.804 200.3 358.238 200.067 360.204 199.6V220.3C360.204 221.7 360.404 222.75 360.804 223.45C361.238 224.15 362.038 224.5 363.204 224.5C364.538 224.5 365.671 223.95 366.604 222.85C367.571 221.717 368.054 220.333 368.054 218.7V205.6C368.054 204.067 367.804 202.95 367.304 202.25C366.838 201.55 366.021 201.2 364.854 201.2V200.15C365.921 200.25 366.954 200.3 367.954 200.3C370.854 200.3 373.288 200.067 375.254 199.6V220.55ZM397.827 199.45C400.527 199.45 402.71 200.567 404.377 202.8C406.043 205 406.877 208.2 406.877 212.4C406.877 217.3 405.81 220.917 403.677 223.25C401.543 225.55 398.793 226.7 395.427 226.7C393.127 226.7 391.26 226.117 389.827 224.95C388.627 224.85 387.427 224.983 386.227 225.35C385.027 225.717 384.077 226.2 383.377 226.8L382.627 226.35C382.86 225.517 382.977 224.583 382.977 223.55V192.9C382.977 191.367 382.727 190.25 382.227 189.55C381.76 188.85 380.943 188.5 379.777 188.5V187.45C380.81 187.55 381.843 187.6 382.877 187.6C385.777 187.6 388.21 187.367 390.177 186.9V204.2C390.877 202.667 391.893 201.5 393.227 200.7C394.56 199.867 396.093 199.45 397.827 199.45ZM393.877 225.65C395.71 225.65 397.077 224.617 397.977 222.55C398.877 220.483 399.327 217.333 399.327 213.1C399.327 209 398.943 206.067 398.177 204.3C397.41 202.5 396.31 201.6 394.877 201.6C393.81 201.6 392.827 202 391.927 202.8C391.06 203.567 390.477 204.617 390.177 205.95V224.3C391.277 225.2 392.51 225.65 393.877 225.65ZM419.685 221.35C419.685 222.717 419.918 223.667 420.385 224.2C420.852 224.7 421.685 224.95 422.885 224.95V226C419.418 225.867 417.185 225.8 416.185 225.8C415.052 225.8 412.752 225.867 409.285 226V224.95C410.452 224.95 411.268 224.7 411.735 224.2C412.235 223.667 412.485 222.717 412.485 221.35V192.85C412.485 191.317 412.235 190.2 411.735 189.5C411.268 188.8 410.452 188.45 409.285 188.45V187.4C410.352 187.5 411.385 187.55 412.385 187.55C415.285 187.55 417.718 187.317 419.685 186.85V221.35ZM439.224 222.6C441.958 222.6 444.158 221.267 445.824 218.6L446.724 218.9C446.058 221.067 444.858 222.917 443.124 224.45C441.424 225.95 439.291 226.7 436.724 226.7C433.191 226.7 430.374 225.583 428.274 223.35C426.208 221.083 425.174 217.75 425.174 213.35C425.174 208.85 426.291 205.417 428.524 203.05C430.758 200.65 433.724 199.45 437.424 199.45C443.691 199.45 446.824 203.15 446.824 210.55H432.774C432.741 211.05 432.724 211.833 432.724 212.9C432.724 215.1 433.024 216.933 433.624 218.4C434.258 219.867 435.058 220.933 436.024 221.6C437.024 222.267 438.091 222.6 439.224 222.6ZM437.124 200.5C435.924 200.5 434.924 201.25 434.124 202.75C433.358 204.217 432.874 206.5 432.674 209.6H440.524C440.591 206.967 440.324 204.8 439.724 203.1C439.158 201.367 438.291 200.5 437.124 200.5ZM479.689 207.4C484.023 207.733 487.206 208.733 489.239 210.4C491.273 212.067 492.289 214.033 492.289 216.3C492.289 219.4 491.073 221.8 488.639 223.5C486.206 225.167 482.823 226 478.489 226C477.523 226 476.706 225.983 476.039 225.95C473.839 225.883 471.689 225.85 469.589 225.85C466.156 225.85 463.589 225.9 461.889 226V225C462.989 224.933 463.789 224.8 464.289 224.6C464.823 224.4 465.173 224.017 465.339 223.45C465.539 222.883 465.639 221.967 465.639 220.7V195.9C465.639 194.633 465.539 193.717 465.339 193.15C465.173 192.583 464.823 192.2 464.289 192C463.789 191.8 462.989 191.667 461.889 191.6V190.6C463.589 190.7 466.123 190.75 469.489 190.75L475.039 190.7C475.706 190.667 476.473 190.65 477.339 190.65C481.339 190.65 484.389 191.367 486.489 192.8C488.623 194.233 489.689 196.133 489.689 198.5C489.689 200.433 488.839 202.233 487.139 203.9C485.473 205.567 482.989 206.7 479.689 207.3V207.4ZM476.689 191.6C475.789 191.6 475.123 191.717 474.689 191.95C474.289 192.183 474.006 192.6 473.839 193.2C473.673 193.8 473.589 194.7 473.589 195.9V207.2H475.739C477.906 207.2 479.423 206.467 480.289 205C481.156 203.5 481.589 201.517 481.589 199.05C481.589 196.55 481.189 194.683 480.389 193.45C479.623 192.217 478.389 191.6 476.689 191.6ZM477.039 224.85C481.673 224.85 483.989 221.933 483.989 216.1C483.989 213.467 483.323 211.467 481.989 210.1C480.656 208.733 478.556 208.05 475.689 208.05H473.589V220.7C473.589 221.9 473.673 222.783 473.839 223.35C474.006 223.917 474.323 224.317 474.789 224.55C475.289 224.75 476.039 224.85 477.039 224.85ZM504.841 221.35C504.841 222.717 505.075 223.667 505.541 224.2C506.008 224.7 506.841 224.95 508.041 224.95V226C504.575 225.867 502.341 225.8 501.341 225.8C500.208 225.8 497.908 225.867 494.441 226V224.95C495.608 224.95 496.425 224.7 496.891 224.2C497.391 223.667 497.641 222.717 497.641 221.35V192.85C497.641 191.317 497.391 190.2 496.891 189.5C496.425 188.8 495.608 188.45 494.441 188.45V187.4C495.508 187.5 496.541 187.55 497.541 187.55C500.441 187.55 502.875 187.317 504.841 186.85V221.35ZM516.769 226.35C514.635 226.35 513.035 225.8 511.969 224.7C510.935 223.6 510.419 222.15 510.419 220.35C510.419 218.85 510.802 217.617 511.569 216.65C512.369 215.65 513.319 214.883 514.419 214.35C515.552 213.817 516.985 213.25 518.719 212.65C520.552 212.017 521.885 211.45 522.719 210.95C523.585 210.417 524.019 209.7 524.019 208.8V204.9C524.019 203.5 523.685 202.417 523.019 201.65C522.385 200.85 521.385 200.45 520.019 200.45C518.419 200.45 517.202 200.85 516.369 201.65C517.302 201.983 518.019 202.483 518.519 203.15C519.052 203.817 519.319 204.6 519.319 205.5C519.319 206.633 518.935 207.533 518.169 208.2C517.402 208.867 516.469 209.2 515.369 209.2C514.202 209.2 513.302 208.833 512.669 208.1C512.035 207.367 511.719 206.45 511.719 205.35C511.719 204.417 511.935 203.633 512.369 203C512.835 202.333 513.535 201.717 514.469 201.15C515.369 200.617 516.469 200.2 517.769 199.9C519.102 199.6 520.552 199.45 522.119 199.45C523.752 199.45 525.169 199.617 526.369 199.95C527.569 200.283 528.569 200.85 529.369 201.65C530.102 202.383 530.585 203.283 530.819 204.35C531.085 205.417 531.219 206.867 531.219 208.7V222.3C531.219 223.1 531.285 223.667 531.419 224C531.585 224.333 531.885 224.5 532.319 224.5C532.819 224.5 533.419 224.217 534.119 223.65L534.619 224.5C533.119 225.733 531.285 226.35 529.119 226.35C527.285 226.35 526.002 225.983 525.269 225.25C524.535 224.517 524.152 223.533 524.119 222.3C522.452 225 520.002 226.35 516.769 226.35ZM520.619 223.15C521.919 223.15 523.052 222.467 524.019 221.1V210.85C523.619 211.517 522.769 212.25 521.469 213.05C520.169 213.883 519.185 214.717 518.519 215.55C517.852 216.383 517.519 217.583 517.519 219.15C517.519 220.517 517.802 221.533 518.369 222.2C518.935 222.833 519.685 223.15 520.619 223.15ZM549.048 199.45C550.281 199.45 551.448 199.583 552.548 199.85C553.648 200.117 554.564 200.483 555.298 200.95C556.164 201.483 556.831 202.167 557.298 203C557.798 203.8 558.048 204.683 558.048 205.65C558.048 206.817 557.681 207.783 556.948 208.55C556.214 209.283 555.264 209.65 554.098 209.65C552.931 209.65 551.998 209.317 551.298 208.65C550.598 207.983 550.248 207.083 550.248 205.95C550.248 204.95 550.564 204.083 551.198 203.35C551.831 202.617 552.614 202.117 553.548 201.85C553.281 201.483 552.864 201.2 552.298 201C551.764 200.767 551.181 200.65 550.548 200.65C548.548 200.65 546.981 201.75 545.848 203.95C544.748 206.117 544.198 208.967 544.198 212.5C544.198 216.067 544.831 218.633 546.098 220.2C547.364 221.767 548.948 222.55 550.848 222.55C551.981 222.55 553.114 222.25 554.248 221.65C555.414 221.05 556.464 220 557.398 218.5L558.248 218.8C557.581 220.967 556.414 222.833 554.748 224.4C553.081 225.933 550.931 226.7 548.298 226.7C544.864 226.7 542.064 225.567 539.898 223.3C537.731 221.033 536.648 217.667 536.648 213.2C536.648 210.267 537.181 207.767 538.248 205.7C539.314 203.633 540.781 202.083 542.648 201.05C544.514 199.983 546.648 199.45 549.048 199.45ZM586.252 222.35C586.786 223.15 587.219 223.75 587.552 224.15C587.886 224.517 588.319 224.783 588.852 224.95V226C586.186 225.867 584.436 225.8 583.602 225.8C582.502 225.8 580.352 225.867 577.152 226V224.95C577.619 224.95 577.986 224.867 578.252 224.7C578.519 224.533 578.652 224.3 578.652 224C578.652 223.833 578.569 223.583 578.402 223.25L573.452 214.3C573.119 213.733 572.769 213.35 572.402 213.15C572.036 212.95 571.569 212.817 571.002 212.75V221.35C571.002 222.717 571.219 223.667 571.652 224.2C572.086 224.7 572.869 224.95 574.002 224.95V226C570.669 225.867 568.502 225.8 567.502 225.8C566.369 225.8 564.069 225.867 560.602 226V224.95C561.769 224.95 562.586 224.7 563.052 224.2C563.552 223.667 563.802 222.717 563.802 221.35V192.85C563.802 191.317 563.552 190.2 563.052 189.5C562.586 188.8 561.769 188.45 560.602 188.45V187.4C561.669 187.5 562.702 187.55 563.702 187.55C566.602 187.55 569.036 187.317 571.002 186.85V211.8C571.669 211.733 572.236 211.6 572.702 211.4C573.202 211.2 573.636 210.9 574.002 210.5L577.802 206.8C578.902 205.7 579.452 204.683 579.452 203.75C579.452 202.983 579.102 202.383 578.402 201.95C577.702 201.483 576.769 201.217 575.602 201.15V200.15C577.436 200.25 579.386 200.3 581.452 200.3C584.219 200.3 586.169 200.25 587.302 200.15V201.15C585.336 201.583 583.252 202.867 581.052 205L577.852 208.3L586.252 222.35ZM617.476 190.6C623.976 190.6 628.843 192.083 632.076 195.05C635.31 197.983 636.926 202.267 636.926 207.9C636.926 211.533 636.126 214.717 634.526 217.45C632.96 220.15 630.676 222.25 627.676 223.75C624.71 225.25 621.16 226 617.026 226L613.926 225.95C611.993 225.883 610.593 225.85 609.726 225.85C606.293 225.85 603.726 225.9 602.026 226V225C603.126 224.933 603.926 224.8 604.426 224.6C604.96 224.4 605.31 224.017 605.476 223.45C605.676 222.883 605.776 221.967 605.776 220.7V195.9C605.776 194.633 605.676 193.717 605.476 193.15C605.31 192.583 604.96 192.2 604.426 192C603.926 191.8 603.126 191.667 602.026 191.6V190.6C603.426 190.7 605.443 190.75 608.076 190.75H609.626L611.626 190.7C614.36 190.633 616.31 190.6 617.476 190.6ZM617.426 191.5C616.393 191.5 615.61 191.617 615.076 191.85C614.576 192.083 614.226 192.5 614.026 193.1C613.826 193.7 613.726 194.6 613.726 195.8V220.8C613.726 222 613.826 222.9 614.026 223.5C614.226 224.1 614.576 224.517 615.076 224.75C615.61 224.983 616.41 225.1 617.476 225.1C621.51 225.1 624.376 223.7 626.076 220.9C627.776 218.067 628.626 213.8 628.626 208.1C628.626 202.4 627.743 198.217 625.976 195.55C624.243 192.85 621.393 191.5 617.426 191.5ZM646.845 187.25C648.245 187.25 649.345 187.6 650.145 188.3C650.978 188.967 651.395 189.9 651.395 191.1C651.395 192.3 650.978 193.25 650.145 193.95C649.345 194.617 648.245 194.95 646.845 194.95C645.445 194.95 644.328 194.617 643.495 193.95C642.695 193.25 642.295 192.3 642.295 191.1C642.295 189.9 642.695 188.967 643.495 188.3C644.328 187.6 645.445 187.25 646.845 187.25ZM650.745 221.35C650.745 222.717 650.978 223.667 651.445 224.2C651.945 224.7 652.778 224.95 653.945 224.95V226C650.611 225.867 648.395 225.8 647.295 225.8C646.261 225.8 643.945 225.867 640.345 226V224.95C641.545 224.95 642.378 224.7 642.845 224.2C643.311 223.667 643.545 222.717 643.545 221.35V205.6C643.545 204.067 643.311 202.95 642.845 202.25C642.378 201.55 641.545 201.2 640.345 201.2V200.15C641.411 200.25 642.445 200.3 643.445 200.3C646.411 200.3 648.845 200.067 650.745 199.6V221.35ZM662.716 226.35C660.583 226.35 658.983 225.8 657.916 224.7C656.883 223.6 656.366 222.15 656.366 220.35C656.366 218.85 656.749 217.617 657.516 216.65C658.316 215.65 659.266 214.883 660.366 214.35C661.499 213.817 662.933 213.25 664.666 212.65C666.499 212.017 667.833 211.45 668.666 210.95C669.533 210.417 669.966 209.7 669.966 208.8V204.9C669.966 203.5 669.633 202.417 668.966 201.65C668.333 200.85 667.333 200.45 665.966 200.45C664.366 200.45 663.149 200.85 662.316 201.65C663.249 201.983 663.966 202.483 664.466 203.15C664.999 203.817 665.266 204.6 665.266 205.5C665.266 206.633 664.883 207.533 664.116 208.2C663.349 208.867 662.416 209.2 661.316 209.2C660.149 209.2 659.249 208.833 658.616 208.1C657.983 207.367 657.666 206.45 657.666 205.35C657.666 204.417 657.883 203.633 658.316 203C658.783 202.333 659.483 201.717 660.416 201.15C661.316 200.617 662.416 200.2 663.716 199.9C665.049 199.6 666.499 199.45 668.066 199.45C669.699 199.45 671.116 199.617 672.316 199.95C673.516 200.283 674.516 200.85 675.316 201.65C676.049 202.383 676.533 203.283 676.766 204.35C677.033 205.417 677.166 206.867 677.166 208.7V222.3C677.166 223.1 677.233 223.667 677.366 224C677.533 224.333 677.833 224.5 678.266 224.5C678.766 224.5 679.366 224.217 680.066 223.65L680.566 224.5C679.066 225.733 677.233 226.35 675.066 226.35C673.233 226.35 671.949 225.983 671.216 225.25C670.483 224.517 670.099 223.533 670.066 222.3C668.399 225 665.949 226.35 662.716 226.35ZM666.566 223.15C667.866 223.15 668.999 222.467 669.966 221.1V210.85C669.566 211.517 668.716 212.25 667.416 213.05C666.116 213.883 665.133 214.717 664.466 215.55C663.799 216.383 663.466 217.583 663.466 219.15C663.466 220.517 663.749 221.533 664.316 222.2C664.883 222.833 665.633 223.15 666.566 223.15ZM722.195 221.35C722.195 222.717 722.428 223.667 722.895 224.2C723.395 224.7 724.228 224.95 725.395 224.95V226C722.062 225.867 719.862 225.8 718.795 225.8C717.862 225.8 715.795 225.867 712.595 226V224.95C713.495 224.95 714.112 224.7 714.445 224.2C714.812 223.7 714.995 222.75 714.995 221.35V205.8C714.995 204.4 714.778 203.367 714.345 202.7C713.945 202 713.162 201.65 711.995 201.65C710.762 201.65 709.678 202.167 708.745 203.2C707.845 204.233 707.312 205.5 707.145 207V207.9V221.35C707.145 222.717 707.345 223.667 707.745 224.2C708.178 224.7 708.945 224.95 710.045 224.95V226C706.845 225.867 704.745 225.8 703.745 225.8C702.812 225.8 700.745 225.867 697.545 226V224.95C698.445 224.95 699.062 224.7 699.395 224.2C699.762 223.667 699.945 222.717 699.945 221.35V205.8C699.945 204.4 699.762 203.367 699.395 202.7C699.028 202 698.312 201.65 697.245 201.65C695.912 201.65 694.762 202.217 693.795 203.35C692.862 204.45 692.395 205.817 692.395 207.45V221.35C692.395 222.717 692.562 223.667 692.895 224.2C693.262 224.7 693.895 224.95 694.795 224.95V226C691.862 225.867 689.895 225.8 688.895 225.8C687.895 225.8 685.595 225.867 681.995 226V224.95C683.195 224.95 684.028 224.7 684.495 224.2C684.962 223.667 685.195 222.717 685.195 221.35V205.6C685.195 204.067 684.962 202.95 684.495 202.25C684.028 201.55 683.195 201.2 681.995 201.2V200.15C683.062 200.25 684.095 200.3 685.095 200.3C688.062 200.3 690.495 200.067 692.395 199.6V204.1C693.862 201 696.445 199.45 700.145 199.45C702.678 199.45 704.512 200.1 705.645 201.4C706.278 202.067 706.695 203.067 706.895 204.4C707.762 202.6 708.895 201.333 710.295 200.6C711.695 199.833 713.328 199.45 715.195 199.45C717.728 199.45 719.562 200.1 720.695 201.4C721.228 202 721.612 202.817 721.845 203.85C722.078 204.883 722.195 206.233 722.195 207.9V221.35ZM740.159 199.45C743.992 199.45 746.992 200.55 749.159 202.75C751.325 204.917 752.409 208.367 752.409 213.1C752.409 217.833 751.325 221.283 749.159 223.45C746.992 225.617 743.992 226.7 740.159 226.7C736.359 226.7 733.359 225.617 731.159 223.45C728.992 221.283 727.909 217.833 727.909 213.1C727.909 208.367 728.992 204.917 731.159 202.75C733.359 200.55 736.359 199.45 740.159 199.45ZM740.159 200.45C738.725 200.45 737.575 201.5 736.709 203.6C735.875 205.667 735.459 208.833 735.459 213.1C735.459 217.367 735.875 220.533 736.709 222.6C737.575 224.667 738.725 225.7 740.159 225.7C741.625 225.7 742.775 224.683 743.609 222.65C744.442 220.583 744.859 217.4 744.859 213.1C744.859 208.8 744.425 205.617 743.559 203.55C742.725 201.483 741.592 200.45 740.159 200.45ZM774.13 199.45C776.663 199.45 778.497 200.1 779.63 201.4C780.197 202.033 780.597 202.85 780.83 203.85C781.063 204.85 781.18 206.2 781.18 207.9V221.35C781.18 222.717 781.413 223.667 781.88 224.2C782.38 224.7 783.213 224.95 784.38 224.95V226C781.047 225.867 778.847 225.8 777.78 225.8C776.78 225.8 774.613 225.867 771.28 226V224.95C772.28 224.95 772.98 224.7 773.38 224.2C773.78 223.667 773.98 222.717 773.98 221.35V205.8C773.98 204.433 773.747 203.4 773.28 202.7C772.847 202 772.047 201.65 770.88 201.65C769.513 201.65 768.347 202.217 767.38 203.35C766.413 204.45 765.93 205.817 765.93 207.45V221.35C765.93 222.717 766.13 223.667 766.53 224.2C766.93 224.7 767.63 224.95 768.63 224.95V226C765.563 225.867 763.497 225.8 762.43 225.8C761.43 225.8 759.13 225.867 755.53 226V224.95C756.73 224.95 757.563 224.7 758.03 224.2C758.497 223.667 758.73 222.717 758.73 221.35V205.6C758.73 204.067 758.497 202.95 758.03 202.25C757.563 201.55 756.73 201.2 755.53 201.2V200.15C756.597 200.25 757.63 200.3 758.63 200.3C761.597 200.3 764.03 200.067 765.93 199.6V204.1C767.43 201 770.163 199.45 774.13 199.45ZM810.843 220.5C810.843 222.033 811.076 223.15 811.543 223.85C812.01 224.55 812.843 224.9 814.043 224.9V225.95C813.01 225.85 811.976 225.8 810.943 225.8C807.976 225.8 805.543 226.033 803.643 226.5V222.2C802.51 225.2 800.343 226.7 797.143 226.7C794.01 226.7 791.51 225.567 789.643 223.3C787.81 221 786.91 217.55 786.943 212.95C786.943 210.017 787.41 207.55 788.343 205.55C789.31 203.517 790.626 202 792.293 201C793.993 199.967 795.926 199.45 798.093 199.45C800.526 199.45 802.376 200.083 803.643 201.35V192.85C803.643 191.317 803.393 190.2 802.893 189.5C802.426 188.8 801.61 188.45 800.443 188.45V187.4C801.51 187.5 802.543 187.55 803.543 187.55C806.443 187.55 808.876 187.317 810.843 186.85V220.5ZM799.193 224.55C800.293 224.55 801.26 224.15 802.093 223.35C802.96 222.55 803.476 221.467 803.643 220.1V202.6C802.81 201.467 801.593 200.9 799.993 200.9C798.226 200.9 796.86 201.917 795.893 203.95C794.926 205.983 794.46 209.017 794.493 213.05C794.46 217.117 794.843 220.05 795.643 221.85C796.476 223.65 797.66 224.55 799.193 224.55ZM855.696 218.4C855.696 221.467 855.812 224 856.046 226C853.779 225.9 849.962 225.85 844.596 225.85C837.329 225.85 831.896 225.9 828.296 226V225C829.396 224.933 830.196 224.8 830.696 224.6C831.229 224.4 831.579 224.017 831.746 223.45C831.946 222.883 832.046 221.967 832.046 220.7V195.9C832.046 194.633 831.946 193.717 831.746 193.15C831.579 192.583 831.229 192.2 830.696 192C830.196 191.8 829.396 191.667 828.296 191.6V190.6C831.896 190.7 837.329 190.75 844.596 190.75C849.496 190.75 852.979 190.7 855.046 190.6C854.812 193.367 854.696 195.833 854.696 198C854.696 199.467 854.746 200.6 854.846 201.4H853.696C853.196 197.833 852.296 195.333 850.996 193.9C849.696 192.467 847.862 191.75 845.496 191.75H843.446C842.412 191.75 841.662 191.833 841.196 192C840.729 192.167 840.412 192.5 840.246 193C840.079 193.467 839.996 194.233 839.996 195.3V207.7H841.596C843.362 207.7 844.696 207.05 845.596 205.75C846.529 204.45 847.179 202.9 847.546 201.1H848.696C848.596 202.5 848.546 204.067 848.546 205.8V208.2C848.546 209.9 848.646 212.267 848.846 215.3H847.696C846.996 210.9 844.962 208.7 841.596 208.7H839.996V221.3C839.996 222.367 840.079 223.15 840.246 223.65C840.412 224.117 840.729 224.433 841.196 224.6C841.662 224.767 842.412 224.85 843.446 224.85H845.896C848.262 224.85 850.162 224.05 851.596 222.45C853.062 220.817 854.096 218.067 854.696 214.2H855.846C855.746 215.3 855.696 216.7 855.696 218.4ZM893.885 223.8C892.985 224.833 892.018 225.567 890.985 226C889.952 226.467 888.702 226.7 887.235 226.7C885.302 226.7 883.768 226.3 882.635 225.5C881.535 224.667 880.818 223.267 880.485 221.3L879.585 216.3C879.152 213.867 878.618 212.083 877.985 210.95C877.385 209.783 876.368 209.2 874.935 209.2H871.685V220.7C871.685 221.967 871.768 222.883 871.935 223.45C872.135 224.017 872.485 224.4 872.985 224.6C873.485 224.8 874.302 224.933 875.435 225V226C873.635 225.9 871.118 225.85 867.885 225.85C864.318 225.85 861.685 225.9 859.985 226V225C861.085 224.933 861.885 224.8 862.385 224.6C862.918 224.4 863.268 224.017 863.435 223.45C863.635 222.883 863.735 221.967 863.735 220.7V195.9C863.735 194.633 863.635 193.717 863.435 193.15C863.268 192.583 862.918 192.2 862.385 192C861.885 191.8 861.085 191.667 859.985 191.6V190.6C861.685 190.7 864.218 190.75 867.585 190.75L873.135 190.7C873.802 190.667 874.568 190.65 875.435 190.65C880.035 190.65 883.485 191.4 885.785 192.9C888.118 194.4 889.285 196.55 889.285 199.35C889.285 201.717 888.418 203.8 886.685 205.6C884.952 207.4 882.085 208.533 878.085 209C881.085 209.267 883.318 209.917 884.785 210.95C886.252 211.983 887.202 213.533 887.635 215.6L888.785 220.75C889.052 222.083 889.352 223.017 889.685 223.55C890.052 224.083 890.552 224.35 891.185 224.35C891.585 224.317 891.918 224.217 892.185 224.05C892.485 223.883 892.818 223.6 893.185 223.2L893.885 223.8ZM874.785 191.6C873.885 191.6 873.218 191.717 872.785 191.95C872.385 192.183 872.102 192.6 871.935 193.2C871.768 193.8 871.685 194.7 871.685 195.9V208.2H873.835C876.568 208.2 878.435 207.483 879.435 206.05C880.468 204.583 880.985 202.533 880.985 199.9C880.985 197.167 880.502 195.1 879.535 193.7C878.568 192.3 876.985 191.6 874.785 191.6ZM906.304 211.7V220.4C906.304 221.733 906.438 222.717 906.704 223.35C907.004 223.95 907.504 224.35 908.204 224.55C908.938 224.75 910.088 224.867 911.654 224.9V226C907.554 225.9 904.504 225.85 902.504 225.85C900.838 225.85 898.738 225.883 896.204 225.95L894.604 226V225C895.704 224.933 896.504 224.8 897.004 224.6C897.538 224.4 897.888 224.017 898.054 223.45C898.254 222.883 898.354 221.967 898.354 220.7V195.9C898.354 194.633 898.254 193.717 898.054 193.15C897.888 192.583 897.538 192.2 897.004 192C896.504 191.8 895.704 191.667 894.604 191.6V190.6C896.304 190.7 898.838 190.75 902.204 190.75L907.754 190.7C908.421 190.667 909.188 190.65 910.054 190.65C914.554 190.65 917.988 191.55 920.354 193.35C922.721 195.117 923.904 197.5 923.904 200.5C923.904 202.333 923.438 204.1 922.504 205.8C921.571 207.467 919.988 208.867 917.754 210C915.554 211.133 912.621 211.7 908.954 211.7H906.304ZM909.404 191.6C908.504 191.6 907.838 191.717 907.404 191.95C907.004 192.183 906.721 192.6 906.554 193.2C906.388 193.8 906.304 194.7 906.304 195.9V210.7H908.454C911.154 210.7 913.021 209.833 914.054 208.1C915.088 206.367 915.604 204.017 915.604 201.05C915.604 197.817 915.121 195.433 914.154 193.9C913.221 192.367 911.638 191.6 909.404 191.6Z" fill="#313131"/>
<path d="M204.448 38.3125H143.203L182.174 95.5388L204.448 38.3125Z" fill="black"/>
<path d="M74.5513 38.3125L96.8256 95.5388L135.796 38.3125H74.5513Z" fill="black"/>
<path d="M139.501 60.0641L109.876 103.562H169.126L139.501 60.0641Z" fill="black"/>
<path d="M216.778 48.0291L195.166 103.563H246.889L216.778 48.0291Z" fill="black"/>
<path d="M62.2204 48.0291L31.6465 103.563H83.8328L62.2204 48.0291Z" fill="black"/>
<path d="M88.8965 119.875H32.1091L135.241 266.688H135.486L88.8965 119.875Z" fill="black"/>
<path d="M190.102 119.875L143.512 266.688H143.757L246.889 119.875H190.102Z" fill="black"/>
<path d="M173.472 119.875H105.529L139.5 225.906L173.472 119.875Z" fill="black"/>
<line x1="261" y1="33" x2="261" y2="267" stroke="black" stroke-width="6"/>
<path d="M311.29 63.28C322.99 63.28 331.75 65.95 337.57 71.29C343.39 76.57 346.3 84.28 346.3 94.42C346.3 100.96 344.86 106.69 341.98 111.61C339.16 116.47 335.05 120.25 329.65 122.95C324.31 125.65 317.92 127 310.48 127L304.9 126.91C301.42 126.79 298.9 126.73 297.34 126.73C291.16 126.73 286.54 126.82 283.48 127V125.2C285.46 125.08 286.9 124.84 287.8 124.48C288.76 124.12 289.39 123.43 289.69 122.41C290.05 121.39 290.23 119.74 290.23 117.46V72.82C290.23 70.54 290.05 68.89 289.69 67.87C289.39 66.85 288.76 66.16 287.8 65.8C286.9 65.44 285.46 65.2 283.48 65.08V63.28C286 63.46 289.63 63.55 294.37 63.55H297.16L300.76 63.46C305.68 63.34 309.19 63.28 311.29 63.28ZM311.2 64.9C309.34 64.9 307.93 65.11 306.97 65.53C306.07 65.95 305.44 66.7 305.08 67.78C304.72 68.86 304.54 70.48 304.54 72.64V117.64C304.54 119.8 304.72 121.42 305.08 122.5C305.44 123.58 306.07 124.33 306.97 124.75C307.93 125.17 309.37 125.38 311.29 125.38C318.55 125.38 323.71 122.86 326.77 117.82C329.83 112.72 331.36 105.04 331.36 94.78C331.36 84.52 329.77 76.99 326.59 72.19C323.47 67.33 318.34 64.9 311.2 64.9ZM384.602 93.52C392.402 94.12 398.132 95.92 401.792 98.92C405.452 101.92 407.282 105.46 407.282 109.54C407.282 115.12 405.092 119.44 400.712 122.5C396.332 125.5 390.242 127 382.442 127C380.702 127 379.232 126.97 378.032 126.91C374.072 126.79 370.202 126.73 366.422 126.73C360.242 126.73 355.622 126.82 352.562 127V125.2C354.542 125.08 355.982 124.84 356.882 124.48C357.842 124.12 358.472 123.43 358.772 122.41C359.132 121.39 359.312 119.74 359.312 117.46V72.82C359.312 70.54 359.132 68.89 358.772 67.87C358.472 66.85 357.842 66.16 356.882 65.8C355.982 65.44 354.542 65.2 352.562 65.08V63.28C355.622 63.46 360.182 63.55 366.242 63.55L376.232 63.46C377.432 63.4 378.812 63.37 380.372 63.37C387.572 63.37 393.062 64.66 396.842 67.24C400.682 69.82 402.602 73.24 402.602 77.5C402.602 80.98 401.072 84.22 398.012 87.22C395.012 90.22 390.542 92.26 384.602 93.34V93.52ZM379.202 65.08C377.582 65.08 376.382 65.29 375.602 65.71C374.882 66.13 374.372 66.88 374.072 67.96C373.772 69.04 373.622 70.66 373.622 72.82V93.16H377.492C381.392 93.16 384.122 91.84 385.682 89.2C387.242 86.5 388.022 82.93 388.022 78.49C388.022 73.99 387.302 70.63 385.862 68.41C384.482 66.19 382.262 65.08 379.202 65.08ZM379.832 124.93C388.172 124.93 392.342 119.68 392.342 109.18C392.342 104.44 391.142 100.84 388.742 98.38C386.342 95.92 382.562 94.69 377.402 94.69H373.622V117.46C373.622 119.62 373.772 121.21 374.072 122.23C374.372 123.25 374.942 123.97 375.782 124.39C376.682 124.75 378.032 124.93 379.832 124.93ZM440.577 63.28C452.277 63.28 461.037 65.95 466.857 71.29C472.677 76.57 475.587 84.28 475.587 94.42C475.587 100.96 474.147 106.69 471.267 111.61C468.447 116.47 464.337 120.25 458.937 122.95C453.597 125.65 447.207 127 439.767 127L434.187 126.91C430.707 126.79 428.187 126.73 426.627 126.73C420.447 126.73 415.827 126.82 412.767 127V125.2C414.747 125.08 416.187 124.84 417.087 124.48C418.047 124.12 418.677 123.43 418.977 122.41C419.337 121.39 419.517 119.74 419.517 117.46V72.82C419.517 70.54 419.337 68.89 418.977 67.87C418.677 66.85 418.047 66.16 417.087 65.8C416.187 65.44 414.747 65.2 412.767 65.08V63.28C415.287 63.46 418.917 63.55 423.657 63.55H426.447L430.047 63.46C434.967 63.34 438.477 63.28 440.577 63.28ZM440.487 64.9C438.627 64.9 437.217 65.11 436.257 65.53C435.357 65.95 434.727 66.7 434.367 67.78C434.007 68.86 433.827 70.48 433.827 72.64V117.64C433.827 119.8 434.007 121.42 434.367 122.5C434.727 123.58 435.357 124.33 436.257 124.75C437.217 125.17 438.657 125.38 440.577 125.38C447.837 125.38 452.997 122.86 456.057 117.82C459.117 112.72 460.647 105.04 460.647 94.78C460.647 84.52 459.057 76.99 455.877 72.19C452.757 67.33 447.627 64.9 440.487 64.9Z" fill="black"/>
</g>
<defs>
<clipPath id="clip0">
<rect width="953" height="317" fill="white"/>
</clipPath>
</defs>
</svg>
